<?xml version="1.0" standalone="no"?>
<!DOCTYPE svg PUBLIC "-//W3C//DTD SVG 20010904//EN"
 "http://www.w3.org/TR/2001/REC-SVG-20010904/DTD/svg10.dtd">
<svg version="1.0" xmlns="http://www.w3.org/2000/svg"
 width="995.000000pt" height="995.000000pt" viewBox="0 0 995.000000 995.000000"
 preserveAspectRatio="xMidYMid meet">
<metadata>
Created by potrace 1.14, written by Peter Selinger 2001-2017
</metadata>
<g transform="translate(0.000000,995.000000) scale(0.100000,-0.100000)"
fill="#000000" stroke="none">
<path d="M2416 7753 c-1 -2 -38 -5 -82 -8 -43 -3 -95 -8 -114 -10 -19 -2 -57
-7 -85 -11 -27 -3 -52 -8 -55 -9 -3 -2 -26 -6 -50 -10 -25 -3 -61 -10 -80 -15
-19 -5 -46 -11 -60 -14 -20 -3 -126 -35 -265 -80 -97 -31 -353 -157 -442 -217
-23 -16 -44 -29 -47 -29 -11 0 -196 -143 -196 -151 0 -5 -4 -9 -9 -9 -13 0
-80 -61 -175 -159 -118 -122 -116 -120 -116 -131 0 -5 -4 -10 -8 -10 -14 0
-192 -249 -192 -269 0 -5 -4 -11 -8 -13 -15 -6 -127 -217 -175 -328 -50 -118
-65 -159 -60 -164 4 -3 1 -6 -5 -6 -7 0 -11 -3 -10 -7 1 -5 -9 -42 -22 -83
-13 -41 -25 -79 -26 -85 -2 -5 -5 -19 -8 -30 -12 -42 -57 -231 -60 -255 -2
-14 -7 -36 -10 -50 -6 -28 -16 -89 -21 -135 -2 -16 -6 -48 -9 -70 -16 -127
-21 -226 -20 -455 0 -140 3 -286 7 -325 10 -114 19 -187 23 -209 3 -12 7 -43
10 -71 3 -27 8 -53 10 -56 2 -4 6 -24 10 -45 5 -32 20 -99 59 -257 15 -63 63
-207 97 -292 43 -109 157 -342 188 -386 11 -15 20 -32 20 -38 0 -6 5 -11 10
-11 6 0 10 -6 10 -14 0 -8 3 -16 8 -18 4 -1 27 -32 51 -68 107 -159 299 -363
460 -488 68 -53 168 -122 179 -122 6 0 12 -4 12 -10 0 -5 6 -10 14 -10 8 0 16
-4 18 -9 5 -13 224 -123 318 -160 47 -18 94 -37 105 -41 46 -20 242 -77 290
-85 11 -2 55 -11 97 -19 68 -14 211 -15 1115 -12 571 2 1046 5 1055 5 18 1 19
17 5 51 -5 12 -31 102 -62 220 -6 21 -92 332 -116 415 -11 39 -21 78 -24 87
-10 45 -39 144 -42 148 -4 5 -125 7 -853 15 -494 5 -658 10 -715 21 -16 3 -43
7 -60 9 -16 2 -50 9 -75 15 -25 7 -53 13 -63 15 -74 15 -345 135 -380 169 -7
6 -24 17 -39 25 -15 8 -36 21 -45 30 -10 9 -36 29 -58 46 -62 46 -195 183
-248 255 -26 36 -54 74 -63 85 -9 11 -20 31 -25 44 -5 13 -18 36 -29 51 -11
16 -20 35 -20 44 0 9 -4 16 -10 16 -5 0 -10 6 -10 13 0 7 -9 32 -20 54 -49
102 -124 390 -135 518 -2 22 -6 59 -10 83 -20 135 -20 495 1 662 21 178 35
251 73 395 12 44 24 87 26 95 2 8 4 16 5 18 2 1 3 5 5 10 9 34 66 173 95 232
37 76 38 80 110 190 69 108 76 116 190 231 197 197 481 342 740 375 19 3 46 7
60 10 42 10 372 13 420 4 25 -5 70 -11 100 -14 30 -4 91 -15 135 -26 44 -11
88 -22 99 -25 24 -6 26 -8 31 -33 2 -11 9 -30 15 -41 6 -12 9 -21 6 -21 -3 0
0 -15 6 -32 5 -18 18 -62 28 -98 10 -36 26 -90 35 -120 9 -30 18 -62 20 -70
53 -188 77 -274 80 -285 1 -5 5 -17 8 -25 4 -8 13 -40 21 -70 19 -71 73 -262
91 -320 8 -25 30 -102 49 -170 19 -69 49 -174 66 -235 18 -60 33 -114 35 -120
1 -5 4 -17 8 -25 3 -8 24 -82 47 -165 23 -82 48 -172 56 -200 8 -27 17 -58 19
-68 2 -9 6 -21 9 -25 3 -5 8 -23 11 -40 3 -18 12 -51 19 -75 18 -53 39 -132
35 -132 -1 0 3 -9 9 -21 6 -11 13 -32 16 -45 7 -31 18 -70 56 -204 18 -60 33
-114 35 -120 1 -5 4 -17 8 -25 3 -8 24 -82 47 -165 23 -82 48 -172 56 -200 8
-27 17 -58 19 -68 2 -9 6 -21 9 -25 3 -5 7 -21 10 -37 3 -15 14 -59 26 -96 11
-38 29 -102 41 -141 11 -40 26 -93 34 -118 16 -55 37 -133 37 -140 0 -3 4 -12
9 -21 4 -9 11 -30 14 -48 3 -17 12 -50 19 -74 8 -23 20 -62 27 -87 7 -25 13
-47 14 -50 1 -3 5 -18 10 -35 4 -16 11 -35 16 -40 8 -11 913 -15 923 -4 4 3
15 35 25 70 10 35 42 141 71 234 29 94 53 175 54 180 1 6 19 64 40 129 21 66
40 127 42 135 2 9 17 61 34 116 31 98 69 220 74 240 2 6 6 24 11 40 4 17 10
35 14 40 3 6 6 15 7 22 1 6 7 27 12 45 6 18 26 85 46 148 19 63 51 169 72 234
20 66 37 125 38 130 1 6 9 34 18 61 41 124 98 312 101 330 1 11 5 25 9 30 3 6
13 35 21 65 9 30 37 123 62 205 63 202 85 277 90 298 2 9 7 22 10 27 3 5 8 19
10 31 2 12 21 74 40 138 42 135 45 144 44 151 0 3 8 28 19 55 11 28 20 53 21
58 0 4 1 8 2 10 0 1 2 9 4 17 2 8 31 105 65 215 34 110 65 210 67 223 8 34 17
27 32 -25 7 -27 15 -55 18 -63 3 -8 8 -21 10 -27 1 -7 5 -19 6 -25 2 -7 7 -20
10 -28 3 -8 17 -53 31 -100 13 -47 43 -146 66 -220 75 -244 82 -265 90 -295 4
-16 15 -52 24 -80 8 -27 33 -108 55 -180 22 -71 57 -184 77 -250 21 -66 39
-125 40 -131 3 -15 53 -180 69 -229 8 -22 25 -78 39 -125 14 -47 34 -116 46
-155 48 -157 102 -335 127 -415 15 -47 28 -89 29 -95 3 -10 26 -86 65 -212 11
-38 27 -93 36 -123 8 -30 19 -61 25 -67 6 -7 8 -13 5 -13 -3 0 2 -24 12 -52
10 -29 19 -57 21 -63 1 -5 4 -14 5 -20 5 -17 30 -102 111 -368 64 -212 80
-255 87 -235 8 21 52 170 62 208 2 8 40 143 85 299 45 157 83 292 85 300 2 9
14 48 25 86 12 39 25 84 30 100 11 38 56 196 114 400 47 165 53 199 36 210 -6
4 -10 12 -9 18 1 7 0 19 -4 27 -7 20 -68 230 -72 253 -2 9 -7 22 -10 27 -3 5
-8 20 -10 32 -3 12 -14 51 -25 85 -11 34 -22 70 -23 80 -2 10 -7 25 -10 33
-10 26 -27 86 -32 109 -2 11 -7 26 -10 31 -3 5 -8 18 -10 27 -4 23 -114 404
-122 423 -3 8 -7 20 -8 25 -2 6 -12 42 -23 80 -12 39 -21 72 -21 75 0 3 -5 19
-11 35 -7 17 -13 38 -15 47 -4 19 -34 124 -43 148 -3 8 -6 17 -7 20 0 3 -9 32
-19 65 -10 33 -22 74 -26 90 -5 17 -18 62 -30 100 -23 73 -32 106 -48 165 -6
19 -27 89 -47 155 -20 66 -38 127 -40 135 -2 8 -20 69 -40 135 -19 66 -37 127
-40 135 -2 8 -22 76 -44 150 -22 74 -55 189 -75 255 -19 66 -41 140 -49 165
-7 25 -14 48 -16 52 -1 4 -3 13 -6 20 -3 11 -37 127 -61 211 -5 16 -37 17
-499 17 l-494 0 -16 -57 c-9 -32 -19 -67 -23 -78 -3 -11 -7 -22 -7 -25 -1 -3
-7 -25 -15 -50 -7 -25 -14 -49 -15 -55 -2 -5 -16 -55 -33 -110 -17 -55 -47
-154 -66 -220 -37 -128 -295 -996 -327 -1105 -11 -36 -22 -75 -25 -87 -2 -12
-9 -35 -15 -50 -6 -16 -12 -35 -14 -43 -2 -8 -10 -41 -20 -72 -9 -32 -17 -61
-17 -65 -1 -5 -12 -39 -25 -78 -13 -38 -24 -72 -25 -75 0 -3 -2 -9 -4 -15 -1
-5 -19 -68 -40 -140 -20 -71 -45 -157 -55 -189 -11 -33 -21 -69 -23 -80 -2
-12 -15 -57 -29 -101 -53 -172 -108 -358 -109 -372 0 -5 -6 -24 -14 -43 -11
-31 -53 -168 -59 -195 -1 -5 -10 -37 -20 -70 -11 -33 -19 -62 -20 -65 0 -6
-22 -77 -41 -135 -7 -22 -14 -32 -15 -22 -2 19 -3 25 -11 47 -3 8 -14 42 -23
75 -9 33 -22 76 -28 95 -6 19 -12 40 -13 45 -1 6 -14 51 -29 100 -15 50 -29
99 -32 110 -3 11 -17 58 -30 105 -14 47 -29 99 -33 115 -5 17 -23 77 -40 135
-18 58 -34 116 -37 130 -2 14 -8 34 -13 45 -8 19 -76 251 -85 286 -2 9 -13 49
-25 90 -12 41 -23 79 -25 84 -1 6 -4 17 -7 25 -3 8 -11 35 -18 60 -7 25 -19
66 -26 91 -8 25 -16 54 -18 65 -3 10 -14 48 -25 84 -19 64 -105 356 -121 415
-5 17 -21 71 -35 120 -15 50 -33 113 -41 140 -8 28 -22 73 -30 100 -8 28 -19
66 -24 85 -5 19 -16 58 -24 85 -8 28 -37 127 -65 220 -27 94 -57 195 -66 225
-16 54 -19 57 -93 99 -244 135 -475 221 -720 266 -15 3 -38 7 -52 10 -14 3
-51 7 -83 10 -32 3 -62 7 -65 9 -18 10 -527 28 -536 19z"/>
<path d="M9256 7318 c-32 -11 -68 -28 -80 -37 -44 -34 -115 -112 -128 -141 -7
-16 -16 -30 -20 -30 -5 0 -8 -7 -8 -15 0 -8 -4 -23 -10 -33 -8 -14 -45 -135
-65 -212 -2 -8 -29 -100 -59 -205 -106 -369 -138 -480 -141 -495 -2 -8 -32
-109 -65 -225 -34 -115 -68 -237 -76 -270 -8 -33 -19 -67 -24 -76 -5 -9 -12
-34 -16 -55 -10 -46 -9 -45 -16 -64 -7 -20 -49 -161 -81 -275 -14 -49 -46
-164 -72 -255 -27 -91 -72 -248 -101 -350 -29 -102 -76 -266 -104 -365 -29
-99 -54 -187 -55 -195 -2 -8 -4 -15 -5 -15 -1 0 -3 -7 -5 -15 -10 -40 -77
-277 -82 -290 -3 -8 -7 -19 -9 -25 -61 -215 -63 -229 -29 -251 17 -11 29 -8
85 19 54 27 78 32 140 33 69 1 187 -20 218 -39 6 -5 12 -6 12 -3 0 9 137 -41
186 -69 67 -37 108 -78 141 -142 41 -78 91 -85 114 -15 7 20 12 38 11 39 -1 2
5 20 13 40 8 21 16 47 18 58 2 11 7 27 10 35 5 13 23 80 28 105 2 6 9 30 16
55 15 46 73 247 77 265 7 30 28 102 33 115 3 8 7 20 8 25 2 6 8 30 15 55 7 25
13 50 15 55 1 6 5 17 8 25 6 14 73 246 81 281 3 9 14 47 25 85 11 38 21 72 21
76 1 4 8 29 16 55 8 27 16 55 18 63 2 8 12 42 22 75 10 33 19 65 20 70 1 6 17
60 34 120 18 61 33 115 35 120 1 6 5 17 8 25 3 8 8 26 11 40 9 35 29 104 76
265 23 77 43 147 45 155 4 14 62 221 69 245 2 6 6 17 9 25 6 15 66 232 72 260
2 8 4 16 5 18 2 1 4 7 5 12 1 6 3 11 5 13 1 1 3 9 5 17 2 8 17 65 35 125 17
61 40 139 50 175 10 36 39 137 65 225 56 194 64 275 40 380 -10 41 -22 75 -26
75 -5 0 -9 6 -9 14 0 24 -88 113 -137 138 -40 21 -92 39 -113 40 -3 0 -12 4
-21 9 -9 4 -31 11 -49 14 -18 3 -41 10 -51 16 -11 5 -19 7 -19 4 0 -3 -10 0
-22 6 -39 21 -156 19 -222 -3z"/>
<path d="M8058 3254 c-16 -8 -29 -22 -29 -32 -2 -22 1 -169 6 -307 2 -60 7
-182 10 -270 11 -328 13 -352 33 -398 11 -26 28 -46 40 -49 24 -7 82 38 115
87 12 18 58 85 102 150 44 64 87 127 95 140 31 50 95 140 105 147 5 4 6 8 2 8
-5 0 -2 6 6 14 7 8 29 38 48 68 18 29 36 55 39 58 3 3 27 38 53 79 60 91 58
117 -13 164 -27 17 -108 46 -149 53 -14 3 -37 9 -51 14 -21 8 -141 43 -190 55
-8 2 -35 10 -60 17 -62 20 -130 20 -162 2z"/>
</g>
</svg>
